<?xml version="1.0" encoding="UTF-8"?>
<svg xmlns="http://www.w3.org/2000/svg" xmlns:xlink="http://www.w3.org/1999/xlink" width="16px" height="16px" viewBox="0 0 16 16" version="1.1">
<g id="surface1">
<path style=" stroke:none;fill-rule:nonzero;fill:rgb(0%,0%,0%);fill-opacity:1;" d="M 7.976562 8.878906 C 10.207031 8.878906 12.019531 7.070312 12.019531 4.835938 C 12.019531 2.605469 10.207031 0.804688 7.976562 0.804688 C 5.742188 0.804688 3.933594 2.617188 3.933594 4.835938 C 3.933594 7.058594 5.742188 8.878906 7.976562 8.878906 Z M 7.976562 1.859375 C 9.613281 1.859375 10.953125 3.199219 10.953125 4.835938 C 10.953125 6.472656 9.613281 7.8125 7.976562 7.8125 C 6.339844 7.8125 5 6.472656 5 4.835938 C 5 3.199219 6.339844 1.859375 7.976562 1.859375 Z M 7.976562 1.859375 "/>
<path style=" stroke:none;fill-rule:nonzero;fill:rgb(0%,0%,0%);fill-opacity:1;" d="M 0.980469 15.195312 L 15.019531 15.195312 C 15.316406 15.195312 15.554688 14.957031 15.554688 14.660156 C 15.554688 11.871094 13.285156 9.585938 10.480469 9.585938 L 5.519531 9.585938 C 2.730469 9.585938 0.445312 11.855469 0.445312 14.660156 C 0.445312 14.957031 0.683594 15.195312 0.980469 15.195312 Z M 5.519531 10.652344 L 10.480469 10.652344 C 12.515625 10.652344 14.1875 12.167969 14.449219 14.128906 L 1.550781 14.128906 C 1.8125 12.179688 3.484375 10.652344 5.519531 10.652344 Z M 5.519531 10.652344 "/>
</g>
</svg>
