<?xml version="1.0" encoding="UTF-8"?>
<svg xmlns="http://www.w3.org/2000/svg" xmlns:xlink="http://www.w3.org/1999/xlink" width="16px" height="16px" viewBox="0 0 16 16" version="1.1">
<g id="surface1">
<path style=" stroke:none;fill-rule:evenodd;fill:rgb(0%,0%,0%);fill-opacity:1;" d="M 12.027344 9.921875 L 16 13.949219 L 14 16 L 9.925781 12.023438 C 8.898438 12.664062 7.710938 13 6.5 13 C 2.910156 13 0 10.082031 0 6.5 C 0 2.910156 2.917969 0 6.5 0 C 10.089844 0 13 2.917969 13 6.5 C 13 7.707031 12.664062 8.894531 12.027344 9.921875 Z M 1.996094 6.453125 C 1.996094 8.933594 4.011719 10.953125 6.496094 10.953125 C 8.976562 10.953125 10.996094 8.9375 10.996094 6.453125 C 10.996094 3.972656 8.980469 1.953125 6.496094 1.953125 C 4.015625 1.953125 1.996094 3.964844 1.996094 6.453125 Z M 1.996094 6.453125 "/>
</g>
</svg>
